<!-- <svg viewBox="500 250 100 100" -->
<svg viewBox="0 0 1000 1000"
     height="1000" width="1000"
     xmlns="http://www.w3.org/2000/svg">
  <style>
    :root {
      --dark-bg-color: #050922;
      --light-bg-color: #e8e8f8 ; /* #faebd7 #e8e8f8 */
      --wing-color: aquamarine; /* #7fffd4 */
      --rim-color: darkmagenta; /* #8b008b */
      --body-color: ghostwhite; /* #f8f8ff */
      --accent-color: gold; /* #ffd700 */
    }
    .moth {
      /* transform="rotate(-45,500,500) translate(0,80)" */
      transform: rotate(-45deg) translate(0,80px);
      transform-origin: 50% 50%;
    }
    .dark-bg {
      fill: var(--dark-bg-color);
    }
    .light-bg {
      fill: var(--light-bg-color);
    }
    .body {
      color: var(--body-color);
    }
  </style>
  <defs>
    <g id="guidelines">
      <path d="M0,0h1000v1000H0V0z M80,80v840h840V80H80" fill="currentColor" fill-opacity="0.2" />
      <circle cx="500" cy="500" r="420" fill="none" stroke="currentColor" stroke-width="1" stroke-opacity=".4" />
      <circle cx="500" cy="500" r="500" fill="none" stroke="currentColor" stroke-width="1" stroke-opacity=".4" />
      <rect x="125" y="125" width="750" height="750" rx="80" fill="none" stroke="currentColor" stroke-width="1" stroke-opacity=".6"/>
      <line x1="0" y1="0" x2="1000" y2="1000" stroke="currentColor" stroke-width="1" stroke-opacity=".3" />
      <line x1="1000" y1="0" x2="0" y2="1000" stroke="currentColor" stroke-width="1" stroke-opacity=".3" />
      <line x1="500" y1="0" x2="500" y2="1000" stroke="currentColor" stroke-width="1" stroke-opacity=".3" />
      <line x1="0" y1="500" x2="1000" y2="500" stroke="currentColor" stroke-width="1" stroke-opacity=".3" />
    </g>
    <g id="draft" fill-opacity="0.2" stroke-width="1" >
      <path d="M500,200l400,80l-400,560l-400,-560z" stroke="olive" fill="lime" />
      <!-- <path d="M500,280l300,-64l100,64l-170,170z" stroke="magenta" fill="darkmagenta" /> -->
      <path d="M500,280l64,0l112,192l-40,56l-120,0l-16,120l40,120l-40,40z" stroke="magenta" fill="darkmagenta" />
      <circle cx="580" cy="472" r="20" stroke="goldenrod" fill="gold" />
      <ellipse cx="692" cy="296" rx="16" ry="28" stroke="goldenrod" fill="gold" />
      <!-- <path d="M460,260h80v192h-80z" stroke="ghostwhite" fill="black" /> -->
      <!-- <path d="M500,260l24,-72" stroke="goldenrod" fill="gold" stroke-width="4" stroke-opacity=".6" /> -->
    </g>
    <linearGradient id="wing-fill-color">
      <stop stop-color="limegreen" stop-opacity=".4" />
    </linearGradient>
    <linearGradient id="wing-rim-color">
      <stop stop-color="darkmagenta" stop-opacity=".6" />
    </linearGradient>
  </defs>
  <path d="M0 0h1000v1000H0V0z" fill="none" />
  <path class="dark-bg" d="M0,0v1000h1000z" />
  <path class="light-bg" d="M1000,1000v-1000h-1000z" />
  <!-- <use xlink:href="#guidelines" color="RED" /> -->
  <g id="moth" class="moth">
    <!-- <use xlink:href="#draft" /> -->
    <g id="antennas">
      <g id="left-antenna">
        <path d="M500,270q0,-80,-60,-80c20,4,60,6,56,80z" fill="black" />
        <path d="M498,270c6,-80,-10,-86,-60,-80c35,15,28,20,42,30s14,20,18,50z" stroke="none" fill="gold" fill-opacity=".6" />
      </g>
      <g id="right-antenna">
        <path d="M500,270c5,-35,7,-40,20,-57s12,-28,12,-35c3,8,0,22,-10,36s-16,20,-18,56z" fill="black" />
        <path d="M502,270c-6,-60,9,-59,16,-66q14,-12,14,-26c8,10,10,32,-11,54s-14,22,-19,38z" fill="gold" fill-opacity=".6" />
      </g>
    </g>
    <g id="body" class="body" fill-opacity="1">
      <path d="M460,280c10,-40,70,-40,80,0s0,172,-40,172s-50,-132,-40,-172z" fill="currentColor" />
    </g>
    
    <g id="right-hindwing">
      <!-- <path d="M530,280
               c30,-9,54,-7,62,-4
               s144,80,165,195
               c1,6,-11,6,-17,27
               c-2,7,-2,7,-16,8
               s-23,13,-27,21
               s-1,12,-53,7
               s-89,72,-79,101
               c-17,14,1,94,15,104
               s22,27,18,34
               q-14,-2,-15,11
               q-11,-1,-14,16
               c-3,18,-22,48,-18,-52
               s13,-209,-22-250
               s1,-218,1,-218
               z
              " stroke="gold" stroke-width="4" stroke-opacity=".4" fill="yellow" fill-opacity=".3" /> -->
      <path d="M550,700
               C550,730,530,740,520,760
               S510,800,530,810
               S570,800,570,780
               S550,740,550,700
               Z
              " stroke="turquoise" stroke-width="4" stroke-opacity=".8" fill="url(#wing-fill-color)" />
      <!-- <circle cx="520" cy="760" r="2" fill="black" fill-opacity="1" stroke="gold" />
      <circle cx="530" cy="810" r="2" fill="lime" fill-opacity="1" stroke="gold" /> -->

      <path d="M530,280
               C560,270,570,250,610,270
               S740,430,750,450
               S758,466,750,480
               S740,500,740,508
               S738,513,728,513
               S708,515,704,519
               S702,523,695,521
               S663,522,655,529
               S654,532,640,530
               S616,534,610,538
               S604,542,600,540
               C540,510,540,590,540,620
               S550,670,550,700
               C550,740,570,760,570,780
               C510,740,500,740,510,670
               S505,500,505,420
               C505,340,530,280,530,280
               Z
              " stroke="darkmagenta" stroke-width="4" stroke-opacity=".5" fill="url(#wing-fill-color)" />

      <!-- <circle cx="610" cy="270" r="2" fill="black" fill-opacity="1" stroke="gold" />
      <circle cx="750" cy="450" r="2" fill="black" fill-opacity="1" stroke="gold" />
      <circle cx="750" cy="480" r="2" fill="black" fill-opacity="1" stroke="gold" />
      <circle cx="740" cy="508" r="2" fill="cyan" fill-opacity="1" stroke="gold" />
      <circle cx="728" cy="513" r="2" fill="black" fill-opacity="1" stroke="gold" />
      <circle cx="704" cy="519" r="2" fill="black" fill-opacity="1" stroke="gold" />
      <circle cx="695" cy="521" r="2" fill="black" fill-opacity="1" stroke="gold" />
      <circle cx="655" cy="529" r="2" fill="black" fill-opacity="1" stroke="gold" />
      <circle cx="640" cy="530" r="2" fill="black" fill-opacity="1" stroke="gold" />
      <circle cx="610" cy="538" r="2" fill="black" fill-opacity="1" stroke="gold" />
      <circle cx="600" cy="540" r="2" fill="red" fill-opacity="1" stroke="gold" />
      <circle cx="540" cy="620" r="2" fill="black" fill-opacity="1" stroke="gold" />
      <circle cx="550" cy="700" r="2" fill="black" fill-opacity="1" stroke="gold" />
      <circle cx="570" cy="780" r="2" fill="black" fill-opacity="1" stroke="gold" />
      <circle cx="510" cy="670" r="2" fill="black" fill-opacity="1" stroke="gold" />
      <circle cx="505" cy="420" r="2" fill="black" fill-opacity="1" stroke="gold" />
      <circle cx="520" cy="310" r="2" fill="black" fill-opacity="1" stroke="gold" />
      <circle cx="530" cy="280" r="3" fill="yellow" fill-opacity="1" stroke="blue" /> -->

      <!-- <path d="M500,270
               L540,270
               L540,290
               L500,290
              " stroke="darkmagenta" stroke-width="2" stroke-opacity=".8" fill="url(#wing-rim-color)" /> -->
    </g>
    <g id="left-hindwing">
      <use xlink:href="#right-hindwing" transform="scale(-1,1) translate(-1000,0)" />
    </g>
<!-- S505,500,505,420
     C505,340,530,280,530,280 -->
    <g id="right-forewing">
      <path d="M530,280
               C700,190,840,200,900,230
               S860,330,840,350
               S780,440,700,430
               S550,370,520,310
               Z"
            stroke="darkmagenta" stroke-width="4" stroke-opacity=".8" fill="url(#wing-fill-color)" />
    </g>
    <g id="left-forewing">
      <use xlink:href="#right-forewing" transform="scale(-1,1) translate(-1000,0)" />
    </g>
    <!-- <use xlink:href="#draft" /> -->
  </g>
</svg>
